<svg width="217" height="165" viewBox="0 0 217 165" fill="none" xmlns="http://www.w3.org/2000/svg">
<path d="M0 162.8V118.705H8.85608V138.286L26.7478 118.705H38.6556L22.1403 135.88L39.5532 162.8H28.0942L16.0367 142.106L8.85608 149.475V162.8H0Z" fill="#1877F2"/>
<path d="M54.2479 140.602L46.6185 139.219C47.4762 136.131 48.9522 133.845 51.0465 132.361C53.1409 130.877 56.2524 130.135 60.3813 130.135C64.1312 130.135 66.9236 130.586 68.7587 131.489C70.5937 132.371 71.8803 133.504 72.6183 134.887C73.3762 136.251 73.7552 138.768 73.7552 142.437L73.6655 152.303C73.6655 155.11 73.7951 157.185 74.0544 158.529C74.3337 159.852 74.8423 161.276 75.5803 162.8H67.2627C67.0433 162.239 66.7741 161.406 66.455 160.304C66.3153 159.802 66.2156 159.471 66.1558 159.311C64.7196 160.715 63.1837 161.767 61.5482 162.469C59.9126 163.171 58.1672 163.522 56.3123 163.522C53.0411 163.522 50.4581 162.63 48.5632 160.845C46.6883 159.06 45.7508 156.804 45.7508 154.077C45.7508 152.273 46.1797 150.668 47.0374 149.265C47.895 147.841 49.0918 146.758 50.6276 146.016C52.1834 145.254 54.4174 144.593 57.3295 144.031C61.2589 143.289 63.9816 142.598 65.4975 141.956V141.114C65.4975 139.489 65.0986 138.336 64.3007 137.655C63.5029 136.953 61.997 136.602 59.783 136.602C58.287 136.602 57.1201 136.903 56.2823 137.504C55.4446 138.086 54.7665 139.118 54.2479 140.602ZM65.4975 147.46C64.4204 147.821 62.715 148.252 60.3813 148.754C58.0476 149.255 56.5217 149.746 55.8036 150.227C54.7066 151.009 54.1581 152.002 54.1581 153.205C54.1581 154.388 54.5969 155.411 55.4745 156.273C56.3522 157.135 57.4692 157.566 58.8255 157.566C60.3414 157.566 61.7875 157.065 63.1638 156.062C64.1811 155.301 64.8493 154.368 65.1684 153.265C65.3878 152.543 65.4975 151.17 65.4975 149.145V147.46Z" fill="#1877F2"/>
<path d="M140.95 165H94.9936C92.3818 165 89.877 163.957 88.0302 162.1C86.1834 160.244 85.1459 157.726 85.1459 155.1V102.3C85.1459 101.425 85.4917 100.585 86.1073 99.9665C86.7229 99.3477 87.5579 99 88.4285 99H134.384C135.255 99 136.09 99.3477 136.706 99.9665C137.321 100.585 137.667 101.425 137.667 102.3V141.9H150.797V155.1C150.797 157.726 149.76 160.244 147.913 162.1C146.066 163.957 143.561 165 140.95 165ZM137.667 148.5V155.1C137.667 155.975 138.013 156.815 138.628 157.433C139.244 158.052 140.079 158.4 140.95 158.4C141.82 158.4 142.655 158.052 143.271 157.433C143.886 156.815 144.232 155.975 144.232 155.1V148.5H137.667ZM131.102 158.4V105.6H91.7111V155.1C91.7111 155.975 92.0569 156.815 92.6725 157.433C93.2881 158.052 94.123 158.4 94.9936 158.4H131.102ZM98.2762 115.5H124.537V122.1H98.2762V115.5ZM114.689 0L124.537 128.7V135.3H98.2762L114.689 0ZM98.2762 141.9H114.689V148.5H98.2762V141.9Z" fill="#1877F2"/>
<path d="M168.044 140.602L160.414 139.219C161.272 136.131 162.748 133.845 164.842 132.361C166.937 130.877 170.048 130.135 174.177 130.135C177.927 130.135 180.719 130.586 182.554 131.489C184.389 132.371 185.676 133.504 186.414 134.887C187.172 136.251 187.551 138.768 187.551 142.437L187.461 152.303C187.461 155.11 187.591 157.185 187.85 158.529C188.129 159.852 188.638 161.276 189.376 162.8H181.058C180.839 162.239 180.57 161.406 180.251 160.304C180.111 159.802 180.011 159.471 179.951 159.311C178.515 160.715 176.979 161.767 175.344 162.469C173.708 163.171 171.963 163.522 170.108 163.522C166.837 163.522 164.254 162.63 162.359 160.845C160.484 159.06 159.547 156.804 159.547 154.077C159.547 152.273 159.975 150.668 160.833 149.265C161.691 147.841 162.887 146.758 164.423 146.016C165.979 145.254 168.213 144.593 171.125 144.031C175.055 143.289 177.777 142.598 179.293 141.956V141.114C179.293 139.489 178.894 138.336 178.096 137.655C177.299 136.953 175.793 136.602 173.579 136.602C172.083 136.602 170.916 136.903 170.078 137.504C169.24 138.086 168.562 139.118 168.044 140.602ZM179.293 147.46C178.216 147.821 176.511 148.252 174.177 148.754C171.843 149.255 170.317 149.746 169.599 150.227C168.502 151.009 167.954 152.002 167.954 153.205C167.954 154.388 168.393 155.411 169.27 156.273C170.148 157.135 171.265 157.566 172.621 157.566C174.137 157.566 175.583 157.065 176.959 156.062C177.977 155.301 178.645 154.368 178.964 153.265C179.184 152.543 179.293 151.17 179.293 149.145V147.46Z" fill="#1877F2"/>
<path d="M204.823 162.8H196.416V130.857H204.224V135.399C205.561 133.253 206.758 131.84 207.815 131.158C208.892 130.476 210.109 130.135 211.465 130.135C213.38 130.135 215.225 130.667 217 131.729L214.397 139.098C212.981 138.176 211.664 137.715 210.448 137.715C209.271 137.715 208.274 138.046 207.456 138.707C206.638 139.349 205.99 140.522 205.511 142.227C205.052 143.931 204.823 147.5 204.823 152.934V162.8Z" fill="#1877F2"/>
</svg>
